<svg width="716" height="439" viewBox="0 0 716 439" fill="none" xmlns="http://www.w3.org/2000/svg">
<path d="M359.79 185.65H462.87C466.8 161.76 473.72 118.69 483.66 102.89C500.11 76.77 525.5 63.7001 559.86 63.7001C574.11 63.7001 587.08 65.99 598.78 70.55C610.47 75.12 621.07 81.4301 630.57 89.4601C640.07 97.5001 648.29 107.19 655.24 118.51C662.18 129.84 667.85 142.08 672.23 155.24C673.33 158.9 674.6 160.72 676.07 160.72C677.89 160.72 678.81 158.53 678.81 154.14V64.79C678.81 61.5 678.44 59.3101 677.71 58.2101C676.97 57.1101 675.88 56.5701 674.42 56.5701C672.59 56.5701 670.21 58.0301 667.29 60.9601L645.91 82.89C634.21 73.39 621.05 66.17 606.44 61.24C591.82 56.31 576.29 53.8401 559.85 53.8401C535.73 53.8401 513.34 59.32 492.7 70.29C472.05 81.25 454.14 95.6901 438.98 113.6C433.01 120.64 427.58 128.07 422.66 135.88V10.37H474.52V0H354.6L239.21 333.2L119.93 0H0V10.37H51.86V425.24H0V435.61H114.09V425.24H62.23V21.39L206.79 435.62H215.22L359.78 18.8V185.68L359.79 185.65Z" fill="white"/>
<path d="M683.2 316.95C681.37 316.95 679.54 318.96 677.72 322.98C671.14 337.97 664.02 351.95 656.34 364.92C648.67 377.9 639.9 389.13 630.03 398.63C620.16 408.14 609.2 415.54 597.14 420.83C585.08 426.13 571.74 428.78 557.12 428.78C523.86 428.78 499.19 415.81 483.12 389.86C467.03 363.92 459 349.11 459 299.04V296.31H359.79V425.22H307.93V435.59H474.53V425.22H422.67V353.59C428.94 363.66 435.93 373.02 443.65 381.63C459.36 399.17 477.09 413.06 496.82 423.29C516.55 433.52 536.65 438.64 557.12 438.64C574.29 438.64 590.74 435.26 606.46 428.5C622.17 421.74 636.24 411.42 648.67 397.53L677.72 429.32C679.54 431.14 681.19 432.06 682.65 432.06C684.84 432.06 685.94 430.78 685.94 428.22V322.42C685.94 318.77 685.02 316.94 683.2 316.94V316.95Z" fill="white"/>
<path d="M399.69 260.72L399.64 240.72L389.83 257.2H386.35L376.59 241.15V260.72H369.35V227.39H375.73L388.21 248.1L400.5 227.39H406.83L406.92 260.72H399.68H399.69Z" fill="white"/>
<path d="M451.499 254.53V260.72H425.689V227.39H450.879V233.58H433.359V240.82H448.839V246.82H433.359V254.53H451.499Z" fill="white"/>
<path d="M475.14 259.08C472.39 257.6 470.24 255.56 468.66 252.94C467.09 250.32 466.3 247.36 466.3 244.06C466.3 240.76 467.09 237.8 468.66 235.18C470.23 232.56 472.39 230.51 475.14 229.04C477.89 227.56 480.97 226.83 484.4 226.83C487.29 226.83 489.9 227.34 492.23 228.35C494.56 229.37 496.52 230.83 498.11 232.73L493.16 237.3C490.91 234.7 488.11 233.4 484.78 233.4C482.72 233.4 480.88 233.85 479.26 234.76C477.64 235.67 476.38 236.93 475.47 238.55C474.56 240.17 474.11 242.01 474.11 244.07C474.11 246.13 474.56 247.97 475.47 249.59C476.37 251.21 477.64 252.47 479.26 253.38C480.88 254.28 482.72 254.74 484.78 254.74C488.11 254.74 490.91 253.42 493.16 250.79L498.11 255.36C496.52 257.3 494.55 258.77 492.21 259.79C489.86 260.81 487.24 261.31 484.35 261.31C480.95 261.31 477.88 260.57 475.14 259.1V259.08Z" fill="white"/>
<path d="M526.299 247.63L521.819 252.3V260.73H514.149V227.4H521.819V242.97L536.579 227.4H545.149L531.339 242.26L545.959 260.74H536.959L526.289 247.65L526.299 247.63Z" fill="white"/>
<path d="M586.06 254.53V260.72H560.25V227.39H585.44V233.58H567.92V240.82H583.4V246.82H567.92V254.53H586.06Z" fill="white"/>
<path d="M603.06 227.39H610.77V254.44H627.48V260.73H603.05V227.4L603.06 227.39Z" fill="white"/>
<path d="M642.68 227.39H650.39V254.44H667.1V260.73H642.67V227.4L642.68 227.39Z" fill="white"/>
<path d="M704.529 253.58H689.049L686.099 260.72H678.199L693.059 227.39H700.679L715.579 260.72H707.489L704.539 253.58H704.529ZM702.099 247.72L696.809 234.96L691.519 247.72H702.089H702.099Z" fill="white"/>
</svg>
